Coordinates
version=1
nRows=49
nColumns=12
inDegrees=yes

Units are S.I. units (second, meters, Newtons, ...)
Angles are in degrees

endheader
time	SC_y	SC_z	SC_x	AC_y	AC_z	AC_x	GH_y	GH_z	GH_yy	EL_x	PS_y
       0.0               -57.1          31.11           14.9          64.75          2.401         -3.703         -133.6          86.11          142.7          101.3          27.64
   0.03038               -57.1          31.11           14.9          64.75          2.401         -3.703         -133.6           86.1          142.6          101.3          27.64
   0.06076              -57.09           31.1           14.9          64.75          2.401         -3.702         -133.5          86.08          142.6          101.3          27.65
   0.09115              -57.09           31.1           14.9          64.74          2.401         -3.701         -133.5          86.07          142.5          101.3          27.66
    0.1215              -57.08          31.09           14.9          64.74          2.401           -3.7         -133.4          86.05          142.5          101.3          27.67
    0.1519              -57.08          31.09           14.9          64.74          2.401           -3.7         -133.4          86.03          142.4          101.3          27.68
    0.1823              -57.07          31.08          14.91          64.74          2.401         -3.699         -133.3          86.01          142.4          101.3          27.68
    0.2127              -57.06          31.08          14.91          64.74          2.401         -3.698         -133.2          85.99          142.3          101.3          27.69
    0.2431              -57.06          31.07          14.91          64.74          2.401         -3.697         -133.2          85.97          142.3          101.3           27.7
    0.2734              -57.05          31.07          14.91          64.74          2.401         -3.696         -133.1          85.94          142.2          101.2          27.72
    0.3038              -57.04          31.06          14.92          64.74          2.401         -3.694         -133.0          85.92          142.1          101.2          27.73
    0.3342              -57.03          31.05          14.92          64.73          2.401         -3.693         -132.9          85.89          142.0          101.2          27.74
    0.3646              -57.02          31.05          14.92          64.73          2.401         -3.692         -132.8          85.86          141.9          101.2          27.75
     0.395              -57.01          31.04          14.93          64.73          2.401          -3.69         -132.7          85.83          141.9          101.2          27.77
    0.4254               -57.0          31.03          14.93          64.73          2.401         -3.689         -132.6          85.79          141.7          101.2          27.79
    0.4557              -56.99          31.02          14.93          64.73          2.401         -3.687         -132.5          85.75          141.6          101.2           27.8
    0.4861              -56.97          31.01          14.94          64.72          2.401         -3.685         -132.4          85.71          141.5          101.2          27.82
    0.5165              -56.96           31.0          14.94          64.72          2.401         -3.683         -132.2          85.67          141.4          101.1          27.84
    0.5469              -56.94          30.99          14.95          64.72          2.401          -3.68         -132.1          85.62          141.2          101.1          27.87
    0.5773              -56.92          30.98          14.95          64.71          2.401         -3.678         -131.9          85.56          141.1          101.1          27.89
    0.6076               -56.9          30.96          14.96          64.71          2.401         -3.675         -131.7           85.5          140.9          101.1          27.92
     0.638              -56.88          30.94          14.97          64.71          2.401         -3.672         -131.5          85.44          140.7          101.1          27.95
    0.6684              -56.86          30.93          14.97           64.7          2.401         -3.669         -131.3          85.37          140.5          101.0          27.98
    0.6988              -56.83          30.91          14.98           64.7          2.401         -3.665         -131.0          85.29          140.3          101.0          28.02
    0.7292               -56.8          30.89          14.99          64.69          2.401         -3.661         -130.7           85.2          140.0          101.0          28.06
    0.7596              -56.77          30.86           15.0          64.68          2.401         -3.656         -130.4           85.1          139.8          100.9           28.1
    0.7899              -56.73          30.84          15.01          64.68          2.401         -3.651         -130.1          84.99          139.4          100.9          28.15
    0.8203              -56.69          30.81          15.03          64.67          2.401         -3.646         -129.7          84.86          139.1          100.8          28.21
    0.8507              -56.65          30.77          15.04          64.66          2.401         -3.639         -129.2          84.72          138.7          100.8          28.28
    0.8811              -56.59          30.73          15.06          64.65          2.401         -3.632         -128.7          84.56          138.2          100.7          28.35
    0.9115              -56.53          30.69          15.08          64.64          2.401         -3.623         -128.1          84.38          137.7          100.7          28.43
    0.9418              -56.46          30.64           15.1          64.63          2.401         -3.613         -127.5          84.17          137.1          100.6          28.53
    0.9722              -56.38          30.58          15.12          64.61            2.4         -3.602         -126.7          83.93          136.4          100.5          28.64
     1.003              -56.29          30.51          15.15          64.59            2.4         -3.589         -125.8          83.65          135.6          100.4          28.77
     1.033              -56.18          30.43          15.19          64.57            2.4         -3.574         -124.8          83.32          134.6          100.3          28.92
     1.063              -56.05          30.33          15.23          64.55            2.4         -3.556         -123.5          82.93          133.5          100.1           29.1
     1.094               -55.9          30.22          15.28          64.52            2.4         -3.535         -122.1          82.47          132.2          99.97          29.31
     1.124              -55.72          30.09          15.33          64.48            2.4         -3.509         -120.3          81.92          130.6          99.76          29.56
     1.155               -55.5          29.93           15.4          64.44            2.4         -3.478         -118.2          81.25          128.6          99.52          29.87
     1.185              -55.23          29.73          15.49          64.39          2.399          -3.44         -115.6          80.43          126.3          99.22          30.25
     1.215               -54.9          29.48          15.59          64.33          2.399         -3.394         -112.4          79.42          123.3          98.84          30.71
     1.246              -54.48          29.18          15.72          64.25          2.399         -3.335         -108.4          78.16          119.7          98.38          31.28
     1.276              -53.96          28.79          15.89          64.15          2.398         -3.262         -103.3          76.58          115.1           97.8          32.01
     1.306              -53.29           28.3           16.1          64.02          2.397         -3.169         -96.93          74.57          109.3          97.06          32.94
     1.337              -52.44          27.67          16.37          63.86          2.397         -3.049         -88.73          71.99          101.9          96.11          34.12
     1.367              -51.35          26.87          16.71          63.65          2.395         -2.896         -78.22          68.68          92.33          94.89          35.64
     1.398              -49.95          25.84          17.15          63.39          2.394         -2.701         -64.78          64.46          80.13          93.33          37.57
     1.428               -48.2          24.55          17.71          63.05          2.392         -2.455         -47.89          59.14          64.79          91.38          40.01
     1.458              -46.06          22.98          18.38          62.64           2.39         -2.155         -27.31          52.67          46.09          88.99          42.98
